<svg xmlns:xlink="http://www.w3.org/1999/xlink" aria-hidden="true" width="27" height="30" viewBox="0 0 27 30" fill="none" xmlns="http://www.w3.org/2000/svg">
  <path fill-rule="evenodd" clip-rule="evenodd" d="M3.12347 18.8567C4.33838 17.3614 6.02361 16.4805 7.82312 16.4805H19.4694C21.2689 16.4805 22.9541 17.3614 24.169 18.8567C25.3805 20.3477 26.0425 22.3423 26.0425 24.3974V27.9808C26.0425 28.3951 25.7067 28.7308 25.2925 28.7308H2C1.58579 28.7308 1.25 28.3951 1.25 27.9808V24.3974C1.25 22.3423 1.912 20.3477 3.12347 18.8567ZM7.82312 17.9805C6.53386 17.9805 5.25682 18.6097 4.28764 19.8026C3.31501 20.9996 2.75 22.6509 2.75 24.3974V27.2308H24.5425V24.3974C24.5425 22.6509 23.9775 20.9996 23.0049 19.8026C22.0357 18.6097 20.7586 17.9805 19.4694 17.9805H7.82312Z" fill="#222222"></path>
  <path fill-rule="evenodd" clip-rule="evenodd" d="M13.6461 2.75C10.5969 2.75 8.125 5.22186 8.125 8.27106C8.125 11.3202 10.5969 13.7921 13.6461 13.7921C16.6952 13.7921 19.1671 11.3202 19.1671 8.27106C19.1671 5.22186 16.6952 2.75 13.6461 2.75ZM6.625 8.27106C6.625 4.39343 9.76843 1.25 13.6461 1.25C17.5237 1.25 20.6671 4.39343 20.6671 8.27106C20.6671 12.1487 17.5237 15.2921 13.6461 15.2921C9.76843 15.2921 6.625 12.1487 6.625 8.27106Z" fill="#222222"></path>
</svg>